<svg xmlns="http://www.w3.org/2000/svg" width="24" height="24" viewBox="0 0 24 24">
    <path data-name="패스 494" d="M0 0h24v24H0z" style="fill:none"/>
    <g data-name="그룹 2475">
        <path data-name="사각형 697" d="M983.167 566.716v4.167a.46.46 0 0 1-.46.46h-12.686a.462.462 0 0 1-.461-.461v-12.838a.461.461 0 0 1 .461-.461h4.872" transform="translate(-964.999 -551.641)" style="stroke-linecap:round;stroke-miterlimit:10;stroke:#fff;stroke-width:1.5px;fill:none"/>
        <path data-name="패스 903" d="m978.837 565.574-4.646.966.912-4.7 6.252-6.252a1.11 1.11 0 0 1 1.57 0l2.164 2.166a1.109 1.109 0 0 1 0 1.569z" transform="translate(-964.746 -551.817)" style="stroke-linejoin:round;stroke:#fff;stroke-width:1.5px;fill:none"/>
    </g>
</svg>
