<svg xmlns="http://www.w3.org/2000/svg" width="22" height="22" viewBox="0 0 22 22">
    <rect data-name="사각형 54" width="22" height="22" rx="3" style="fill:#4664e6"/>
    <path d="M10.537 2.275 12.9 4.636a.256.256 0 0 1 0 .364l-5.718 5.713-2.429.27a.509.509 0 0 1-.563-.563l.27-2.429 5.716-5.716a.256.256 0 0 1 .361 0zm4.24-.6L13.5.4a1.024 1.024 0 0 0-1.445 0l-.926.926a.256.256 0 0 0 0 .361l2.361 2.361a.256.256 0 0 0 .361 0l.926-.926a1.024 1.024 0 0 0 0-1.446zM10.05 9.158v2.664H1.675V3.447h6.014a.322.322 0 0 0 .222-.092l1.048-1.046a.314.314 0 0 0-.222-.537H1.256A1.257 1.257 0 0 0 0 3.029v9.213A1.257 1.257 0 0 0 1.256 13.5h9.213a1.257 1.257 0 0 0 1.256-1.256V8.111a.315.315 0 0 0-.537-.222l-1.046 1.047a.322.322 0 0 0-.092.222z" transform="translate(3.875 3.712)" style="fill:#fff"/>
</svg>
