<svg xmlns="http://www.w3.org/2000/svg" width="14" height="14" viewBox="0 0 14 14">
    <circle data-name="타원 4" cx="7" cy="7" r="7" style="fill:#d8dcec"/>
    <path data-name="패스 12692" d="M-2.215-6.363h1.5v5.52h-1.5zm.762-.9a.874.874 0 0 1-.434-.111.862.862 0 0 1-.316-.3.759.759 0 0 1-.117-.41.749.749 0 0 1 .117-.4.839.839 0 0 1 .316-.3.893.893 0 0 1 .434-.108.893.893 0 0 1 .434.108.839.839 0 0 1 .316.3.749.749 0 0 1 .117.4.759.759 0 0 1-.117.41.862.862 0 0 1-.316.3.874.874 0 0 1-.434.108z" transform="translate(8.453 12)" style="fill:#4a547d"/>
</svg>
